<?xml version="1.0" encoding="UTF-8"?>
<svg version="1.1" xmlns="http://www.w3.org/2000/svg" width="40" height="40">
<path d="M0 0 C4.62 0 9.24 0 14 0 C14 13.2 14 26.4 14 40 C6.41 40 -1.18 40 -9 40 C-7.69646 36.74115 -6.5363417 33.99957184 -4.8359375 31.01171875 C-4.43632812 30.30595703 -4.03671875 29.60019531 -3.625 28.87304688 C-3.2125 28.15181641 -2.8 27.43058594 -2.375 26.6875 C-1.95476563 25.94693359 -1.53453125 25.20636719 -1.1015625 24.44335938 C-0.07051505 22.62730989 0.96436046 20.81343467 2 19 C-0.64 19 -3.28 19 -6 19 C-5.28739906 14.71620357 -3.93078264 10.74906147 -2.4375 6.6875 C-2.20353516 6.04232422 -1.96957031 5.39714844 -1.72851562 4.73242188 C-1.15552993 3.15378781 -0.57820536 1.57672974 0 0 Z " fill="#FFFFFF" transform="translate(26,0)"/>
<path d="M0 0 C5.94 0 11.88 0 18 0 C16.7991348 7.2051912 15.25989184 14.05459908 13 21 C15.31 21 17.62 21 20 21 C18.3186083 27.48707154 16.46937673 33.7677635 14 40 C9.38 40 4.76 40 0 40 C0 26.8 0 13.6 0 0 Z " fill="#FFFFFF" transform="translate(0,0)"/>
</svg>
